# xmcd
#
# Track frame offsets:
#	150
#	14792
#	35557
#	54676
#	74240
#	88194
#	107359
#	124554
#	147589
#	168260
#	185902
#	202780
#	219084
#
# Disc length: 3109 seconds
#
# Revision: 1
# Processed by: cddbd v1.5.2PL0 Copyright (c) Steve Scherf et al.
# Submitted via: audiograbber 1.83.01
#
DISCID=c30c230d
DTITLE=Thor and Mick Hoffman - BeastWomen From The Centre Of The Earth
DYEAR=2004
DGENRE=Metal
TTITLE0=Break The Ice
TTITLE1=BeastWomen
TTITLE2=The Sleeping Giant
TTITLE3=Darghila
TTITLE4=Sirens Calling
TTITLE5=The Sky Land
TTITLE6=We Are The Panthers
TTITLE7=Hail, Thor
TTITLE8=Mushroom World
TTITLE9=Palace Of Gold
TTITLE10=Cry Of The Valkyrie
TTITLE11=Underground
TTITLE12=Symphony Of Steel
EXTD=
EXTT0=
EXTT1=
EXTT2=
EXTT3=
EXTT4=
EXTT5=
EXTT6=
EXTT7=
EXTT8=
EXTT9=
EXTT10=
EXTT11=
EXTT12=
PLAYORDER=
